<svg aria-hidden="true" style="position: absolute; width: 0; height: 0; overflow: hidden;" version="1.1" xmlns="http://www.w3.org/2000/svg" xmlns:xlink="http://www.w3.org/1999/xlink">
<defs>
<symbol id="icon-section4-1" viewBox="0 0 32 32">
<path fill="#fff" style="fill: var(--color1, #fff)" d="M31.505 6.456v23.597c0 0.805-0.65 1.452-1.455 1.452h-28.101c-0.805 0-1.455-0.647-1.455-1.452v-23.597h31.010z"></path>
<path fill="#38bff2" style="fill: var(--color2, #38bff2)" d="M31.505 1.95v4.506h-31.010v-4.506c0-0.805 0.65-1.455 1.455-1.455h28.101c0.805 0 1.455 0.65 1.455 1.455z"></path>
<path fill="#d7e9ff" style="fill: var(--color3, #d7e9ff)" d="M4.479 3.474c0 0.42-0.341 0.761-0.761 0.761s-0.761-0.341-0.761-0.761c0-0.42 0.341-0.758 0.761-0.758s0.761 0.338 0.761 0.758z"></path>
<path fill="#d7e9ff" style="fill: var(--color3, #d7e9ff)" d="M7.695 3.474c0 0.42-0.341 0.761-0.761 0.761s-0.761-0.341-0.761-0.761 0.341-0.758 0.761-0.758c0.42 0 0.761 0.338 0.761 0.758z"></path>
<path fill="#d7e9ff" style="fill: var(--color3, #d7e9ff)" d="M10.912 3.474c0 0.42-0.341 0.761-0.761 0.761s-0.761-0.341-0.761-0.761 0.341-0.758 0.761-0.758c0.42 0 0.761 0.338 0.761 0.758z"></path>
<path fill="#d7e9ff" style="fill: var(--color3, #d7e9ff)" d="M29.043 3.473c0 0.42-0.343 0.76-0.764 0.76h-8.052c-0.42 0-0.76-0.339-0.76-0.76s0.339-0.756 0.76-0.756h8.052c0.42 0 0.764 0.335 0.764 0.756z"></path>
<path fill="#1a2e35" style="fill: var(--color4, #1a2e35)" d="M30.050 0.165h-28.101c-0.984 0-1.785 0.801-1.785 1.785v28.104c0 0.982 0.801 1.781 1.785 1.781h28.101c0.984 0 1.785-0.799 1.785-1.781 0-3.531 0-23.917 0-28.104 0-0.984-0.801-1.785-1.785-1.785zM0.825 1.95c0-0.62 0.505-1.125 1.125-1.125h28.101c0.62 0 1.125 0.505 1.125 1.125v4.176h-30.351v-4.176zM31.175 30.054c0 0.618-0.505 1.122-1.125 1.122h-28.101c-0.62 0-1.125-0.503-1.125-1.122v-23.268h30.351v23.268z"></path>
<path fill="#1a2e35" style="fill: var(--color4, #1a2e35)" d="M4.466 19.317c0.64 0 1.161 0.515 1.161 1.148v2.878c0 1.004 0.811 1.82 1.807 1.82 0.182 0 0.33-0.148 0.33-0.33s-0.148-0.33-0.33-0.33c-0.633 0-1.148-0.521-1.148-1.161v-2.878c0-0.615-0.311-1.16-0.785-1.486 0.467-0.332 0.773-0.874 0.773-1.482v-2.878c0-0.64 0.515-1.161 1.148-1.161 0.182 0 0.33-0.148 0.33-0.33s-0.148-0.33-0.33-0.33c-0.997 0-1.808 0.817-1.808 1.82v2.878c0 0.63-0.517 1.15-1.153 1.161-0.434 0.007-0.428 0.66 0.005 0.66z"></path>
<path fill="#1a2e35" style="fill: var(--color4, #1a2e35)" d="M25.713 20.465v2.878c0 0.64-0.515 1.161-1.148 1.161-0.182 0-0.33 0.148-0.33 0.33s0.148 0.33 0.33 0.33c0.996 0 1.807-0.817 1.807-1.82v-2.878c0-0.633 0.521-1.148 1.161-1.148 0.433 0 0.438-0.653 0.005-0.66-0.636-0.010-1.153-0.531-1.153-1.161v-2.878c0-1.004-0.811-1.82-1.808-1.82-0.182 0-0.33 0.148-0.33 0.33s0.148 0.33 0.33 0.33c0.633 0 1.148 0.521 1.148 1.161v2.878c0 0.608 0.306 1.15 0.773 1.482-0.474 0.327-0.785 0.871-0.785 1.486z"></path>
<path fill="#1a2e35" style="fill: var(--color4, #1a2e35)" d="M13.785 24.716c0.17 0.066 0.361-0.019 0.427-0.189l4.192-10.855c0.066-0.17-0.019-0.361-0.189-0.427s-0.361 0.019-0.427 0.189l-4.192 10.855c-0.066 0.17 0.019 0.361 0.189 0.427z"></path>
<path fill="#1a2e35" style="fill: var(--color4, #1a2e35)" d="M22.62 18.986l-3.803 2.57c-0.151 0.102-0.191 0.307-0.089 0.458s0.308 0.19 0.458 0.089l4.207-2.843c0.195-0.131 0.192-0.416 0.001-0.546l-4.207-2.854c-0.15-0.102-0.356-0.063-0.458 0.088s-0.063 0.356 0.088 0.458l3.804 2.581z"></path>
<path fill="#1a2e35" style="fill: var(--color4, #1a2e35)" d="M8.606 19.259l4.167 2.843c0.15 0.103 0.356 0.064 0.458-0.087s0.064-0.356-0.087-0.458l-3.768-2.571 3.769-2.581c0.15-0.103 0.188-0.308 0.086-0.459s-0.308-0.189-0.459-0.086l-4.167 2.854c-0.090 0.062-0.143 0.164-0.143 0.273s0.054 0.211 0.144 0.272z"></path>
<path fill="#1a2e35" style="fill: var(--color4, #1a2e35)" d="M3.718 2.386c-0.601 0-1.091 0.488-1.091 1.088 0 0.602 0.489 1.091 1.091 1.091s1.091-0.489 1.091-1.091c-0-0.6-0.489-1.088-1.091-1.088zM3.718 3.905c-0.237 0-0.431-0.193-0.431-0.431 0-0.236 0.193-0.428 0.431-0.428s0.431 0.192 0.431 0.428c-0 0.238-0.193 0.431-0.431 0.431z"></path>
<path fill="#1a2e35" style="fill: var(--color4, #1a2e35)" d="M6.935 2.386c-0.601 0-1.091 0.488-1.091 1.088 0 0.602 0.489 1.091 1.091 1.091s1.090-0.489 1.090-1.091c0-0.6-0.489-1.088-1.090-1.088zM6.935 3.905c-0.238 0-0.431-0.193-0.431-0.431 0-0.236 0.193-0.428 0.431-0.428s0.431 0.192 0.431 0.428c0 0.238-0.193 0.431-0.431 0.431z"></path>
<path fill="#1a2e35" style="fill: var(--color4, #1a2e35)" d="M10.152 2.386c-0.602 0-1.091 0.488-1.091 1.088 0 0.602 0.489 1.091 1.091 1.091s1.090-0.489 1.090-1.091c0-0.6-0.489-1.088-1.090-1.088zM10.152 3.905c-0.238 0-0.431-0.193-0.431-0.431 0-0.236 0.193-0.428 0.431-0.428s0.431 0.192 0.431 0.428c0 0.238-0.193 0.431-0.431 0.431z"></path>
<path fill="#1a2e35" style="fill: var(--color4, #1a2e35)" d="M28.279 2.388h-8.052c-0.601 0-1.090 0.487-1.090 1.085 0 0.601 0.489 1.090 1.090 1.090h8.052c0.603 0 1.093-0.489 1.093-1.090 0-0.598-0.491-1.085-1.093-1.085zM28.279 3.903h-8.052c-0.237 0-0.43-0.193-0.43-0.43 0-0.239 0.189-0.426 0.43-0.426h8.052c0.239 0 0.434 0.191 0.434 0.426 0 0.237-0.195 0.43-0.434 0.43z"></path>
</symbol>
<symbol id="icon-section4-2" viewBox="0 0 32 32">
<path fill="#38bff2" style="fill: var(--color2, #38bff2)" d="M20.61 16c0 2.546-2.064 4.61-4.61 4.61s-4.61-2.064-4.61-4.61c0-2.546 2.064-4.61 4.61-4.61s4.61 2.064 4.61 4.61z"></path>
<path fill="#38bff2" style="fill: var(--color2, #38bff2)" d="M24.949 2.983c0 1.348-1.093 2.441-2.441 2.441s-2.441-1.093-2.441-2.441c0-1.348 1.093-2.441 2.441-2.441s2.441 1.093 2.441 2.441z"></path>
<path fill="#38bff2" style="fill: var(--color2, #38bff2)" d="M5.424 9.492c0 1.348-1.093 2.441-2.441 2.441s-2.441-1.093-2.441-2.441c0-1.348 1.093-2.441 2.441-2.441s2.441 1.093 2.441 2.441z"></path>
<path fill="#38bff2" style="fill: var(--color2, #38bff2)" d="M11.932 29.017c0 1.348-1.093 2.441-2.441 2.441s-2.441-1.093-2.441-2.441c0-1.348 1.093-2.441 2.441-2.441s2.441 1.093 2.441 2.441z"></path>
<path fill="#38bff2" style="fill: var(--color2, #38bff2)" d="M31.458 22.508c0 1.348-1.093 2.441-2.441 2.441s-2.441-1.093-2.441-2.441c0-1.348 1.093-2.441 2.441-2.441s2.441 1.093 2.441 2.441z"></path>
<path fill="#1a2e35" style="fill: var(--color4, #1a2e35)" d="M11.243 14.726c-0.702 2.623 0.86 5.328 3.482 6.031 0.425 0.114 0.852 0.168 1.273 0.168 2.174 0 4.169-1.453 4.758-3.65 0.34-1.27 0.166-2.597-0.492-3.736s-1.72-1.954-2.99-2.294c-1.271-0.341-2.598-0.166-3.736 0.492s-1.954 1.72-2.294 2.99zM16.001 11.941c0.347 0 0.699 0.045 1.050 0.139h0c1.047 0.28 1.923 0.952 2.465 1.891s0.686 2.033 0.406 3.080c-0.579 2.162-2.81 3.451-4.971 2.871-2.162-0.579-3.45-2.809-2.871-4.971 0.485-1.812 2.129-3.009 3.922-3.009zM7.446 14.075c0.011 0.001 0.021 0.001 0.032 0.001 0.225 0 0.414-0.174 0.431-0.402 0.543-7.584 6.228-10.827 11.767-10.744 0.020 0.444 0.144 0.88 0.373 1.276 0.374 0.649 0.979 1.113 1.703 1.307 0.242 0.065 0.486 0.097 0.73 0.097 0.486 0 0.966-0.128 1.398-0.377 0.5-0.289 0.889-0.716 1.131-1.227 2.020 0.78 3.905 1.944 5.606 3.473 0.083 0.074 0.186 0.111 0.289 0.111 0.119 0 0.237-0.048 0.322-0.143 0.16-0.178 0.145-0.451-0.032-0.611-1.799-1.617-3.797-2.844-5.94-3.662 0.183-1.375-0.677-2.709-2.052-3.077-1.491-0.399-3.028 0.486-3.431 1.974-7.014-0.156-12.223 4.542-12.725 11.543-0.017 0.238 0.162 0.445 0.4 0.462zM20.603 2.302c0.232-0.865 1.017-1.438 1.874-1.438 0.166 0 0.334 0.021 0.502 0.066 1.033 0.277 1.648 1.342 1.371 2.375s-1.343 1.648-2.375 1.371c-1.033-0.277-1.648-1.342-1.371-2.375zM2.070 12.23c-0.156 7.013 4.542 12.223 11.543 12.725 0.011 0.001 0.021 0.001 0.032 0.001 0.225 0 0.414-0.174 0.431-0.402 0.017-0.238-0.162-0.445-0.4-0.462-7.586-0.544-10.831-6.232-10.744-11.771 0.444-0.020 0.88-0.141 1.276-0.369 0.649-0.374 1.113-0.979 1.307-1.703s0.094-1.479-0.28-2.128c-0.289-0.5-0.716-0.889-1.227-1.131 0.78-2.020 1.944-3.905 3.473-5.606 0.16-0.178 0.145-0.451-0.032-0.611s-0.452-0.145-0.611 0.032c-1.617 1.799-2.844 3.797-3.662 5.94-1.375-0.183-2.709 0.677-3.077 2.052-0.399 1.49 0.486 3.027 1.974 3.432zM0.931 9.022c0.232-0.865 1.017-1.438 1.874-1.438 0.166 0 0.334 0.021 0.502 0.066 1.033 0.277 1.648 1.342 1.371 2.375s-1.343 1.648-2.375 1.371c-1.033-0.277-1.648-1.342-1.371-2.375zM24.554 17.925c-0.242-0.020-0.445 0.162-0.462 0.4-0.543 7.584-6.227 10.831-11.767 10.744-0.020-0.444-0.144-0.88-0.373-1.276-0.374-0.649-0.979-1.113-1.703-1.307s-1.479-0.094-2.128 0.28c-0.5 0.289-0.889 0.716-1.131 1.227-2.020-0.78-3.905-1.944-5.606-3.473-0.178-0.16-0.452-0.145-0.611 0.032s-0.145 0.451 0.032 0.611c1.799 1.617 3.797 2.844 5.94 3.662-0.183 1.375 0.677 2.709 2.052 3.077 0.242 0.065 0.485 0.096 0.725 0.096 1.235 0 2.369-0.824 2.707-2.070 0.113 0.003 0.227 0.008 0.339 0.008 6.841 0 11.892-4.662 12.385-11.551 0.017-0.238-0.162-0.445-0.4-0.462zM11.397 29.698c-0.277 1.033-1.344 1.648-2.375 1.371-1.033-0.277-1.648-1.342-1.371-2.375 0.232-0.865 1.017-1.438 1.874-1.438 0.166 0 0.334 0.021 0.502 0.066 1.033 0.277 1.648 1.342 1.371 2.375zM29.93 19.77c0.156-7.013-4.541-12.223-11.543-12.725-0.238-0.018-0.445 0.162-0.462 0.4s0.162 0.445 0.4 0.462c7.584 0.543 10.83 6.23 10.744 11.767-0.444 0.020-0.88 0.145-1.276 0.373-0.649 0.374-1.113 0.979-1.307 1.703s-0.094 1.479 0.28 2.128c0.289 0.5 0.716 0.889 1.227 1.131-0.78 2.020-1.944 3.905-3.473 5.606-0.16 0.178-0.145 0.451 0.032 0.611 0.083 0.074 0.186 0.111 0.289 0.111 0.119 0 0.237-0.048 0.322-0.143 1.616-1.798 2.843-3.795 3.662-5.938 0.123 0.017 0.247 0.025 0.369 0.025 1.238 0 2.374-0.827 2.71-2.079 0.399-1.49-0.486-3.027-1.974-3.432zM31.069 22.978c-0.277 1.033-1.343 1.648-2.375 1.371s-1.648-1.342-1.371-2.375c0.232-0.865 1.017-1.438 1.874-1.438 0.166 0 0.334 0.021 0.502 0.066 1.033 0.277 1.648 1.342 1.371 2.375z"></path>
</symbol>
<symbol id="icon-section4-3" viewBox="0 0 32 32">
<path fill="#fff" style="fill: var(--color1, #fff)" d="M31.505 3.901v16.265h-31.010v-16.265c0-0.739 0.591-1.338 1.32-1.338h28.371c0.729-0 1.32 0.599 1.32 1.338z"></path>
<path fill="#38bff2" style="fill: var(--color2, #38bff2)" d="M0.495 20.166v2.99c0 0.739 0.591 1.338 1.32 1.338h28.371c0.729 0 1.32-0.599 1.32-1.338v-2.99h-31.010z"></path>
<path fill="#d7e9ff" style="fill: var(--color3, #d7e9ff)" d="M12.539 24.495h6.921v3.15h-6.921v-3.15z"></path>
<path fill="#38bff2" style="fill: var(--color2, #38bff2)" d="M22.235 28.034l0.825 0.832c0.209 0.211 0.062 0.572-0.233 0.572h-13.654c-0.294 0-0.441-0.361-0.233-0.572l0.825-0.832c0.247-0.25 0.582-0.39 0.931-0.39h10.609c0.349 0 0.684 0.14 0.931 0.39z"></path>
<path fill="#d7e9ff" style="fill: var(--color3, #d7e9ff)" d="M16 22.996c0.363 0 0.657-0.298 0.657-0.666s-0.294-0.666-0.657-0.666c-0.363 0-0.656 0.298-0.656 0.666s0.294 0.666 0.656 0.666z"></path>
<path fill="#1a2e35" style="fill: var(--color4, #1a2e35)" d="M31.835 3.9c0-0.922-0.74-1.673-1.649-1.673h-28.371c-0.909 0-1.649 0.751-1.649 1.673v19.256c0 0.922 0.74 1.673 1.649 1.673h10.395v2.48h-1.514c-0.439 0-0.852 0.173-1.163 0.487l-0.825 0.832c-0.416 0.42-0.123 1.144 0.465 1.144h13.655c0.587 0 0.882-0.723 0.465-1.144l-0.825-0.832c-0.311-0.314-0.724-0.487-1.163-0.487h-1.514v-2.48h10.395c0.91 0 1.649-0.751 1.649-1.673 0-6.84 0-11.924 0-19.256zM0.825 3.9c0-0.554 0.444-1.004 0.99-1.004h28.371c0.546 0 0.99 0.45 0.99 1.004v15.931h-30.351v-15.931zM22.002 28.271c0 0 0 0 0 0l0.825 0.832h-13.655l0.825-0.833c0.187-0.188 0.434-0.292 0.697-0.292h10.609c0.263 0 0.511 0.104 0.698 0.292zM19.131 27.309h-6.262v-2.48h6.262v2.48zM31.175 23.156c0 0.554-0.444 1.004-0.99 1.004-9.462 0-18.931 0-28.371 0-0.546 0-0.99-0.45-0.99-1.004v-2.655h30.351v2.655z"></path>
<path fill="#1a2e35" style="fill: var(--color4, #1a2e35)" d="M16 23.331c0.544 0 0.986-0.449 0.986-1s-0.443-1.001-0.986-1.001c-0.544 0-0.986 0.449-0.986 1.001s0.443 1 0.986 1zM16 21.999c0.18 0 0.327 0.149 0.327 0.331s-0.147 0.331-0.327 0.331c-0.18 0-0.327-0.149-0.327-0.331s0.147-0.331 0.327-0.331z"></path>
<path fill="#1a2e35" style="fill: var(--color4, #1a2e35)" d="M25.63 6.171h-22.101c-0.182 0-0.33 0.15-0.33 0.335s0.148 0.335 0.33 0.335h22.101c0.182 0 0.33-0.15 0.33-0.335s-0.148-0.335-0.33-0.335z"></path>
<path fill="#1a2e35" style="fill: var(--color4, #1a2e35)" d="M25.63 8.457h-22.101c-0.182 0-0.33 0.15-0.33 0.335s0.148 0.335 0.33 0.335h22.101c0.182 0 0.33-0.15 0.33-0.335s-0.148-0.335-0.33-0.335z"></path>
<path fill="#1a2e35" style="fill: var(--color4, #1a2e35)" d="M21.059 10.743h-17.529c-0.182 0-0.33 0.15-0.33 0.335s0.148 0.335 0.33 0.335h17.529c0.182 0 0.33-0.15 0.33-0.335s-0.148-0.335-0.33-0.335z"></path>
<path fill="#1a2e35" style="fill: var(--color4, #1a2e35)" d="M16.488 13.029h-12.958c-0.182 0-0.33 0.15-0.33 0.335s0.148 0.335 0.33 0.335h12.958c0.182 0 0.33-0.15 0.33-0.335s-0.148-0.335-0.33-0.335z"></path>
<path fill="#1a2e35" style="fill: var(--color4, #1a2e35)" d="M11.916 15.314h-8.386c-0.182 0-0.33 0.15-0.33 0.335s0.148 0.335 0.33 0.335h8.386c0.182 0 0.33-0.15 0.33-0.335s-0.148-0.335-0.33-0.335z"></path>
</symbol>
<symbol id="icon-section4-4" viewBox="0 0 32 32">
<path fill="#fff" style="fill: var(--color1, #fff)" d="M28.247 4.943v23.161c0 0.608-0.492 1.1-1.1 1.1h-22.269c-0.608 0-1.1-0.492-1.1-1.1v-1.442c-0.594 0-1.132-0.243-1.52-0.631-0.394-0.388-0.631-0.929-0.631-1.523h2.151v-19.565c0-0.608 0.492-1.1 1.1-1.1h22.269c0.608 0 1.1 0.492 1.1 1.1z"></path>
<path fill="#38bff2" style="fill: var(--color2, #38bff2)" d="M3.862 26.404c-1.138 0-1.694-1.355-1.829-2.033l22.155-0.203c0.418 1.674 1.365 2.171 1.968 2.236h0.268c-0.077 0.010-0.168 0.011-0.268 0h-22.294z"></path>
<path fill="#38bff2" style="fill: var(--color2, #38bff2)" d="M8.525 12.379c-0.96 0-1.74 0.779-1.74 1.736s0.781 1.737 1.74 1.737c0.957 0 1.736-0.779 1.736-1.737s-0.779-1.736-1.736-1.736z"></path>
<path fill="#1a2e35" style="fill: var(--color4, #1a2e35)" d="M8.525 12.379c-0.96 0-1.74 0.779-1.74 1.736s0.781 1.737 1.74 1.737c0.957 0 1.736-0.779 1.736-1.737s-0.779-1.736-1.736-1.736zM8.525 15.273c-0.64 0-1.161-0.519-1.161-1.158s0.521-1.157 1.161-1.157c0.638 0 1.157 0.519 1.157 1.157s-0.519 1.158-1.157 1.158z"></path>
<path fill="#38bff2" style="fill: var(--color2, #38bff2)" d="M13.668 12.379c-0.96 0-1.74 0.779-1.74 1.736s0.781 1.737 1.74 1.737c0.958 0 1.737-0.779 1.737-1.737s-0.779-1.736-1.737-1.736z"></path>
<path fill="#1a2e35" style="fill: var(--color4, #1a2e35)" d="M13.668 12.379c-0.96 0-1.74 0.779-1.74 1.736s0.781 1.737 1.74 1.737c0.958 0 1.737-0.779 1.737-1.737s-0.779-1.736-1.737-1.736zM13.668 15.273c-0.64 0-1.161-0.519-1.161-1.158s0.521-1.157 1.161-1.157c0.638 0 1.157 0.519 1.157 1.157s-0.519 1.158-1.157 1.158z"></path>
<path fill="#38bff2" style="fill: var(--color2, #38bff2)" d="M18.811 12.414c-0.96 0-1.74 0.779-1.74 1.736s0.781 1.737 1.74 1.737c0.958 0 1.737-0.779 1.737-1.737s-0.779-1.736-1.737-1.736z"></path>
<path fill="#1a2e35" style="fill: var(--color4, #1a2e35)" d="M18.811 12.379c-0.96 0-1.74 0.779-1.74 1.736s0.781 1.737 1.74 1.737c0.958 0 1.737-0.779 1.737-1.737s-0.779-1.736-1.737-1.736zM18.811 15.273c-0.64 0-1.161-0.519-1.161-1.158s0.521-1.157 1.161-1.157c0.638 0 1.157 0.519 1.157 1.157s-0.519 1.158-1.157 1.158z"></path>
<path fill="#38bff2" style="fill: var(--color2, #38bff2)" d="M23.954 15.852c0.958 0 1.737-0.779 1.737-1.737s-0.779-1.736-1.737-1.736c-0.96 0-1.74 0.779-1.74 1.736s0.781 1.737 1.74 1.737z"></path>
<path fill="#1a2e35" style="fill: var(--color4, #1a2e35)" d="M23.954 15.852c0.958 0 1.737-0.779 1.737-1.737s-0.779-1.736-1.737-1.736c-0.96 0-1.74 0.779-1.74 1.736s0.781 1.737 1.74 1.737zM23.954 12.958c0.638 0 1.157 0.519 1.157 1.157s-0.519 1.158-1.157 1.158c-0.64 0-1.161-0.519-1.161-1.158s0.521-1.157 1.161-1.157z"></path>
<path fill="#38bff2" style="fill: var(--color2, #38bff2)" d="M8.525 17.257c-0.96 0-1.74 0.779-1.74 1.737s0.781 1.736 1.74 1.736c0.957 0 1.736-0.779 1.736-1.736s-0.779-1.737-1.736-1.737z"></path>
<path fill="#1a2e35" style="fill: var(--color4, #1a2e35)" d="M8.525 17.257c-0.96 0-1.74 0.779-1.74 1.737s0.781 1.736 1.74 1.736c0.957 0 1.736-0.779 1.736-1.736s-0.779-1.737-1.736-1.737zM8.525 20.151c-0.64 0-1.161-0.519-1.161-1.157s0.521-1.158 1.161-1.158c0.638 0 1.157 0.519 1.157 1.158s-0.519 1.157-1.157 1.157z"></path>
<path fill="#38bff2" style="fill: var(--color2, #38bff2)" d="M13.668 17.257c-0.96 0-1.74 0.779-1.74 1.737s0.781 1.736 1.74 1.736c0.958 0 1.737-0.779 1.737-1.736s-0.779-1.737-1.737-1.737z"></path>
<path fill="#1a2e35" style="fill: var(--color4, #1a2e35)" d="M13.668 17.257c-0.96 0-1.74 0.779-1.74 1.737s0.781 1.736 1.74 1.736c0.958 0 1.737-0.779 1.737-1.736s-0.779-1.737-1.737-1.737zM13.668 20.151c-0.64 0-1.161-0.519-1.161-1.157s0.521-1.158 1.161-1.158c0.638 0 1.157 0.519 1.157 1.158s-0.519 1.157-1.157 1.157z"></path>
<path fill="#1a2e35" style="fill: var(--color4, #1a2e35)" d="M18.811 17.257c-0.96 0-1.74 0.779-1.74 1.737s0.781 1.736 1.74 1.736c0.958 0 1.737-0.779 1.737-1.736s-0.779-1.737-1.737-1.737zM18.811 20.151c-0.64 0-1.161-0.519-1.161-1.157s0.521-1.158 1.161-1.158c0.638 0 1.157 0.519 1.157 1.158s-0.519 1.157-1.157 1.157z"></path>
<path fill="#1a2e35" style="fill: var(--color4, #1a2e35)" d="M25.69 18.994c0-0.958-0.779-1.737-1.737-1.737-0.96 0-1.74 0.779-1.74 1.737s0.781 1.736 1.74 1.736c0.958 0 1.737-0.779 1.737-1.736zM23.954 20.151c-0.64 0-1.161-0.519-1.161-1.157s0.521-1.158 1.161-1.158c0.638 0 1.157 0.519 1.157 1.158s-0.519 1.157-1.157 1.157z"></path>
<path fill="#1a2e35" style="fill: var(--color4, #1a2e35)" d="M27.372 3.303h-2.324v-1.566c0-0.16-0.13-0.29-0.29-0.29s-0.29 0.129-0.29 0.29v1.566h-17.154v-1.566c0-0.16-0.13-0.29-0.29-0.29s-0.29 0.129-0.29 0.29v1.566h-1.633c-0.766 0-1.39 0.623-1.39 1.39-0 2.547-0.001 19.167-0.001 19.276h-1.862c-0.16 0-0.29 0.129-0.29 0.29 0 1.286 0.971 2.284 2.152 2.423v1.172c0 0.766 0.623 1.39 1.39 1.39h22.269c0.766 0 1.39-0.623 1.39-1.39 0-5.107 0-18.313 0-23.161-0-0.766-0.623-1.39-1.39-1.39zM5.103 3.882h1.633v2.298c0 0.16 0.13 0.29 0.29 0.29s0.29-0.13 0.29-0.29v-2.298h17.154v2.298c0 0.16 0.13 0.29 0.29 0.29s0.29-0.13 0.29-0.29v-2.298h2.324c0.447 0 0.811 0.364 0.811 0.811v3.784h-23.889v-3.785c0-0.447 0.364-0.811 0.811-0.811zM4.292 9.056h23.89v15.201c0 1.028-0.835 1.864-1.861 1.864-0.001 0-0.002-0-0.003-0-1.029 0-1.863-0.834-1.863-1.863 0-0.16-0.13-0.29-0.29-0.29h-19.874v-14.912zM2.162 24.547h21.732c0.073 0.617 0.375 1.173 0.847 1.574h-20.737c-0.938 0-1.706-0.691-1.841-1.574zM28.182 27.853c0 0.447-0.364 0.811-0.811 0.811h-22.269c-0.447 0-0.811-0.364-0.811-0.811v-1.153h22.029c0.746 0 1.414-0.338 1.862-0.867v2.020h-0z"></path>
</symbol>
<symbol id="icon-section4-5" viewBox="0 0 32 32">
<path fill="#fff" style="fill: var(--color1, #fff)" stroke-linejoin="miter" stroke-linecap="butt" stroke-miterlimit="4" stroke-width="0.75" stroke="#000" d="M0.375 4.75c0-1.45 1.175-2.625 2.625-2.625h18.663c1.45 0 2.625 1.175 2.625 2.625v14.279c0 1.45-1.175 2.625-2.625 2.625h-11.954c-0.858 0-1.703 0.205-2.465 0.599l-5.958 3.075c-0.416 0.215-0.912-0.087-0.912-0.555v-20.022z"></path>
<path stroke-linejoin="miter" stroke-linecap="butt" stroke-miterlimit="4" stroke-width="0.75" d="M25.863 8.327h2.377c1.657 0 3 1.343 3 3v17.162c0 0.776-0.846 1.256-1.512 0.859l-4.325-2.581c-0.775-0.462-1.66-0.706-2.562-0.706h-9.218c-1.47 0-2.661-1.192-2.661-2.661v0"></path>
<path fill="#38bff2" style="fill: var(--color2, #38bff2)" stroke-linejoin="miter" stroke-linecap="butt" stroke-miterlimit="4" stroke-width="0.75" stroke="#000" d="M6.029 7.952h13.154c0.51 0 0.923 0.413 0.923 0.923v0c0 0.51-0.413 0.923-0.923 0.923h-13.154c-0.51 0-0.923-0.413-0.923-0.923v0c0-0.51 0.413-0.923 0.923-0.923z"></path>
<path fill="#38bff2" style="fill: var(--color2, #38bff2)" stroke-linejoin="miter" stroke-linecap="butt" stroke-miterlimit="4" stroke-width="0.75" stroke="#000" d="M6.029 11.788h9.865c0.51 0 0.923 0.413 0.923 0.923v0c0 0.51-0.413 0.923-0.923 0.923h-9.865c-0.51 0-0.923-0.413-0.923-0.923v0c0-0.51 0.413-0.923 0.923-0.923z"></path>
</symbol>
<symbol id="icon-section4-6" viewBox="0 0 32 32">
<path fill="#38bff2" style="fill: var(--color2, #38bff2)" d="M27.073 27.076c6.117-6.117 6.117-16.035 0-22.153s-16.035-6.117-22.153 0c-6.117 6.117-6.117 16.035 0 22.153s16.035 6.117 22.153 0z"></path>
<path fill="#fff" style="fill: var(--color1, #fff)" d="M16 28.333c6.812 0 12.333-5.522 12.333-12.333s-5.522-12.333-12.333-12.333-12.333 5.522-12.333 12.333c0 6.812 5.522 12.333 12.333 12.333z"></path>
<path fill="#1a2e35" style="fill: var(--color4, #1a2e35)" d="M16 0c-8.822 0-16 7.178-16 16s7.178 16 16 16c8.822 0 16-7.178 16-16s-7.178-16-16-16zM16 31.333c-8.455 0-15.333-6.879-15.333-15.333s6.879-15.333 15.333-15.333c8.455 0 15.333 6.879 15.333 15.333s-6.879 15.333-15.333 15.333z"></path>
<path fill="#1a2e35" style="fill: var(--color4, #1a2e35)" d="M16 3.333c-6.984 0-12.667 5.682-12.667 12.667s5.682 12.667 12.667 12.667 12.667-5.682 12.667-12.667c0-6.984-5.682-12.667-12.667-12.667zM16 28c-6.617 0-12-5.383-12-12s5.383-12 12-12 12 5.383 12 12c0 6.617-5.383 12-12 12z"></path>
<path fill="#1a2e35" style="fill: var(--color4, #1a2e35)" d="M17.335 8.794h-4.433c-0.006-0-0.010-0.003-0.016-0.003-0.184 0-0.333 0.149-0.333 0.333v6.377h-1.24c-0.184 0-0.333 0.149-0.333 0.333s0.149 0.333 0.333 0.333h1.24v1.411h-1.24c-0.184 0-0.333 0.149-0.333 0.333s0.149 0.333 0.333 0.333h1.24v4.629c0 0.184 0.149 0.333 0.333 0.333s0.333-0.149 0.333-0.333v-4.629h6.015c0.184 0 0.333-0.149 0.333-0.333s-0.149-0.333-0.333-0.333h-6.015v-1.411h3.883c2.044 0 3.761-1.489 3.909-3.39 0-0 0-0 0-0 0.171-2.21-1.573-3.983-3.676-3.983zM20.346 12.726v-0c-0.121 1.556-1.546 2.776-3.244 2.776h-3.883v-6.041h4.116c1.721 0 3.152 1.45 3.011 3.265z"></path>
</symbol>
<symbol id="icon-section4-7" viewBox="0 0 32 32">
<path fill="#fff" style="fill: var(--color1, #fff)" d="M20.942 2.144v27.711c0 0.911-0.738 1.649-1.649 1.649h-14.894c-0.911 0-1.649-0.738-1.649-1.649v-27.711c0-0.911 0.739-1.649 1.649-1.649h14.894c0.911 0 1.649 0.739 1.649 1.649z"></path>
<path fill="#38bff2" style="fill: var(--color2, #38bff2)" d="M16.434 0.495v1.317c0 0.729-0.591 1.32-1.32 1.32h-6.539c-0.729 0-1.32-0.591-1.32-1.32v-1.317h9.178z"></path>
<path fill="#38bff2" style="fill: var(--color2, #38bff2)" d="M29.251 11.075v10.51c0 0.729-0.591 1.32-1.32 1.32h-16.086v-13.15h16.086c0.729 0 1.32 0.591 1.32 1.32z"></path>
<path fill="#d7e9ff" style="fill: var(--color3, #d7e9ff)" d="M11.845 12.452h17.405v3.27h-17.405v-3.27z"></path>
<path fill="#1a2e35" style="fill: var(--color4, #1a2e35)" d="M7.497 29.196c-0.182 0-0.33 0.148-0.33 0.33s0.148 0.33 0.33 0.33h8.698c0.182 0 0.33-0.148 0.33-0.33s-0.148-0.33-0.33-0.33h-8.698z"></path>
<path fill="#1a2e35" style="fill: var(--color4, #1a2e35)" d="M14.238 2.143h0.589c0.182 0 0.33-0.148 0.33-0.33s-0.148-0.33-0.33-0.33h-0.589c-0.182 0-0.33 0.148-0.33 0.33s0.148 0.33 0.33 0.33z"></path>
<path fill="#1a2e35" style="fill: var(--color4, #1a2e35)" d="M8.864 2.143h3.829c0.182 0 0.33-0.148 0.33-0.33s-0.148-0.33-0.33-0.33h-3.829c-0.182 0-0.33 0.148-0.33 0.33s0.148 0.33 0.33 0.33z"></path>
<path fill="#1a2e35" style="fill: var(--color4, #1a2e35)" d="M27.931 9.425h-6.659v-7.281c0-1.091-0.888-1.979-1.979-1.979-3.244 0-11.648 0-14.894 0-1.091 0-1.979 0.888-1.979 1.979v27.711c0 1.092 0.888 1.979 1.979 1.979h14.894c1.092 0 1.979-0.888 1.979-1.979v-6.621h6.659c0.91 0 1.649-0.74 1.649-1.649 0-3.836 0-6.733 0-10.51 0-0.909-0.74-1.649-1.649-1.649zM28.921 11.075v1.047h-16.746v-2.037h15.756c0.546 0 0.99 0.444 0.99 0.99zM28.921 15.392h-16.746v-2.61h16.746v2.61zM16.105 0.825v0.987c0 0.546-0.444 0.99-0.99 0.99h-6.538c-0.546 0-0.99-0.444-0.99-0.99v-0.987h8.518zM20.612 29.856c0 0.728-0.592 1.32-1.32 1.32h-14.894c-0.728 0-1.32-0.592-1.32-1.32v-27.711c0-0.728 0.592-1.32 1.32-1.32h2.528v0.987c0 0.91 0.74 1.649 1.649 1.649h6.538c0.91 0 1.649-0.74 1.649-1.649v-0.987h2.528c0.728 0 1.32 0.592 1.32 1.32v7.281h-8.437v-1.488c0-0.182-0.148-0.33-0.33-0.33s-0.33 0.148-0.33 0.33v16.782c0 0.182 0.148 0.33 0.33 0.33s0.33-0.148 0.33-0.33v-1.485h8.437v6.621h0zM27.931 22.575h-15.756v-4.032h10.907c0.182 0 0.33-0.148 0.33-0.33s-0.148-0.33-0.33-0.33h-10.907v-1.831h16.746v5.534c0 0.546-0.444 0.99-0.99 0.99z"></path>
<path fill="#1a2e35" style="fill: var(--color4, #1a2e35)" d="M23.082 20.084h-0.945c-0.182 0-0.33 0.148-0.33 0.33s0.148 0.33 0.33 0.33h0.945c0.182 0 0.33-0.148 0.33-0.33s-0.148-0.33-0.33-0.33z"></path>
<path fill="#1a2e35" style="fill: var(--color4, #1a2e35)" d="M20.38 20.084h-0.945c-0.182 0-0.33 0.148-0.33 0.33s0.148 0.33 0.33 0.33h0.945c0.182 0 0.33-0.148 0.33-0.33s-0.148-0.33-0.33-0.33z"></path>
<path fill="#1a2e35" style="fill: var(--color4, #1a2e35)" d="M17.679 20.084h-0.945c-0.182 0-0.33 0.148-0.33 0.33s0.148 0.33 0.33 0.33h0.945c0.182 0 0.33-0.148 0.33-0.33s-0.148-0.33-0.33-0.33z"></path>
<path fill="#1a2e35" style="fill: var(--color4, #1a2e35)" d="M14.978 20.084h-0.945c-0.182 0-0.33 0.148-0.33 0.33s0.148 0.33 0.33 0.33h0.945c0.182 0 0.33-0.148 0.33-0.33s-0.148-0.33-0.33-0.33z"></path>
</symbol>
<symbol id="icon-play" viewBox="0 0 27 32">
<path fill="#fff" style="fill: var(--color1, #fff)" d="M24.044 14.026c1.512 0.882 1.512 3.067 0 3.949l-20.606 12.020c-1.524 0.889-3.437-0.21-3.437-1.974v-24.041c0-1.764 1.914-2.863 3.437-1.974l20.606 12.020z"></path>
</symbol>
<symbol id="icon-section7" viewBox="0 0 32 32">
<path fill="#38bff2" style="fill: var(--color1, #38bff2)" d="M31.666 1.667v4.297h-31.332v-4.297c0-0.736 0.597-1.333 1.333-1.333h28.666c0.736 0 1.333 0.597 1.333 1.333z"></path>
<path fill="#fff" style="fill: var(--color2, #fff)" d="M31.667 5.963v24.37c0 0.737-0.597 1.333-1.333 1.333h-28.666c-0.737 0-1.333-0.597-1.333-1.333v-24.37h31.333z"></path>
<path fill="#38bff2" style="fill: var(--color1, #38bff2)" d="M29.333 15.123v-6.16c0-0.368-0.299-0.667-0.667-0.667h-25.333c-0.368 0-0.667 0.299-0.667 0.667v6.16c0 0.368 0.298 0.667 0.667 0.667h25.333c0.368-0 0.667-0.299 0.667-0.667z"></path>
<path fill="#fff" style="fill: var(--color2, #fff)" d="M14.847 3.148c0 0.437-0.354 0.792-0.792 0.792h-10.93c-0.437 0-0.792-0.354-0.792-0.792s0.354-0.792 0.792-0.792h10.93c0.437 0 0.792 0.354 0.792 0.792z"></path>
<path fill="#fff" style="fill: var(--color2, #fff)" d="M28.851 3.963c0.45 0 0.815-0.365 0.815-0.815s-0.365-0.815-0.815-0.815c-0.45 0-0.815 0.365-0.815 0.815s0.365 0.815 0.815 0.815z"></path>
<path fill="#fff" style="fill: var(--color2, #fff)" d="M25.576 3.963c0.45 0 0.815-0.365 0.815-0.815s-0.365-0.815-0.815-0.815c-0.45 0-0.815 0.365-0.815 0.815s0.365 0.815 0.815 0.815z"></path>
<path fill="#fff" style="fill: var(--color2, #fff)" d="M22.301 3.963c0.45 0 0.815-0.365 0.815-0.815s-0.365-0.815-0.815-0.815c-0.45 0-0.815 0.365-0.815 0.815s0.365 0.815 0.815 0.815z"></path>
<path fill="#38bff2" style="fill: var(--color1, #38bff2)" d="M19.667 23.070v-4.28c0-0.368-0.299-0.667-0.667-0.667h-6c-0.368 0-0.667 0.299-0.667 0.667v4.28c0 0.368 0.299 0.667 0.667 0.667h6c0.368-0 0.667-0.299 0.667-0.667z"></path>
<path fill="#38bff2" style="fill: var(--color1, #38bff2)" d="M10 23.070v-4.28c0-0.368-0.299-0.667-0.667-0.667h-6c-0.368 0-0.667 0.299-0.667 0.667v4.28c0 0.368 0.298 0.667 0.667 0.667h6c0.368-0 0.667-0.299 0.667-0.667z"></path>
<path fill="#38bff2" style="fill: var(--color1, #38bff2)" d="M29.333 23.070v-4.28c0-0.368-0.299-0.667-0.667-0.667h-6c-0.368 0-0.667 0.299-0.667 0.667v4.28c0 0.368 0.299 0.667 0.667 0.667h6c0.368-0 0.667-0.299 0.667-0.667z"></path>
<path fill="#1a2e35" style="fill: var(--color3, #1a2e35)" d="M31.999 1.667c0-0.919-0.748-1.667-1.667-1.667h-28.666c-0.919 0-1.667 0.748-1.667 1.667v28.666c0 0.919 0.748 1.667 1.667 1.667h28.666c0.919 0 1.667-0.748 1.667-1.667 0-0.311-0.001-24.995-0.001-28.666zM0.667 1.667c0-0.551 0.449-1 1-1h28.666c0.551 0 1 0.449 1 1v3.963h-30.666v-3.963zM30.333 31.333h-28.666c-0.551 0-1-0.449-1-1v-24.037h30.666v24.037c0 0.551-0.448 1-1 1z"></path>
<path fill="#1a2e35" style="fill: var(--color3, #1a2e35)" d="M28.666 7.963h-25.333c-0.551 0-1 0.449-1 1v6.16c0 0.551 0.449 1 1 1h25.333c0.551 0 1-0.449 1-1v-6.16c-0-0.551-0.449-1-1-1zM29 15.123c0 0.184-0.149 0.333-0.333 0.333h-25.333c-0.184 0-0.333-0.149-0.333-0.333v-6.16c0-0.184 0.149-0.333 0.333-0.333h25.333c0.184 0 0.333 0.149 0.333 0.333v6.16z"></path>
<path fill="#1a2e35" style="fill: var(--color3, #1a2e35)" d="M14.055 2.024h-10.93c-0.62 0-1.125 0.505-1.125 1.125s0.505 1.125 1.125 1.125h10.93c0.62 0 1.125-0.505 1.125-1.125s-0.505-1.125-1.125-1.125zM14.055 3.607h-10.93c-0.253 0-0.458-0.206-0.458-0.458s0.206-0.458 0.458-0.458h10.93c0.253 0 0.458 0.206 0.458 0.458s-0.206 0.458-0.458 0.458z"></path>
<path fill="#1a2e35" style="fill: var(--color3, #1a2e35)" d="M28.851 2c-0.633 0-1.148 0.515-1.148 1.148s0.515 1.148 1.148 1.148c0.633 0 1.148-0.515 1.148-1.148s-0.515-1.148-1.148-1.148zM28.851 3.63c-0.266 0-0.481-0.216-0.481-0.481s0.216-0.482 0.481-0.482c0.266 0 0.482 0.216 0.482 0.482s-0.216 0.481-0.482 0.481z"></path>
<path fill="#1a2e35" style="fill: var(--color3, #1a2e35)" d="M25.576 2c-0.633 0-1.148 0.515-1.148 1.148s0.515 1.148 1.148 1.148c0.633 0 1.148-0.515 1.148-1.148s-0.515-1.148-1.148-1.148zM25.576 3.63c-0.266 0-0.482-0.216-0.482-0.481s0.216-0.482 0.482-0.482c0.266 0 0.481 0.216 0.481 0.482s-0.216 0.481-0.481 0.481z"></path>
<path fill="#1a2e35" style="fill: var(--color3, #1a2e35)" d="M22.301 2c-0.633 0-1.148 0.515-1.148 1.148s0.515 1.148 1.148 1.148c0.633 0 1.148-0.515 1.148-1.148s-0.515-1.148-1.148-1.148zM22.301 3.63c-0.266 0-0.482-0.216-0.482-0.481s0.216-0.482 0.482-0.482c0.266 0 0.481 0.216 0.481 0.482s-0.216 0.481-0.481 0.481z"></path>
<path fill="#1a2e35" style="fill: var(--color3, #1a2e35)" d="M10 25.737h-7.333c-0.184 0-0.333 0.149-0.333 0.333s0.149 0.333 0.333 0.333h7.333c0.184 0 0.333-0.149 0.333-0.333s-0.149-0.333-0.333-0.333z"></path>
<path fill="#1a2e35" style="fill: var(--color3, #1a2e35)" d="M10 29h-7.333c-0.184 0-0.333 0.149-0.333 0.333s0.149 0.333 0.333 0.333h7.333c0.184 0 0.333-0.149 0.333-0.333s-0.149-0.333-0.333-0.333z"></path>
<path fill="#1a2e35" style="fill: var(--color3, #1a2e35)" d="M10 27.368h-7.333c-0.184 0-0.333 0.149-0.333 0.333s0.149 0.333 0.333 0.333h7.333c0.184 0 0.333-0.149 0.333-0.333s-0.149-0.333-0.333-0.333z"></path>
<path fill="#1a2e35" style="fill: var(--color3, #1a2e35)" d="M19.667 25.737h-7.333c-0.184 0-0.333 0.149-0.333 0.333s0.149 0.333 0.333 0.333h7.333c0.184 0 0.333-0.149 0.333-0.333s-0.149-0.333-0.333-0.333z"></path>
<path fill="#1a2e35" style="fill: var(--color3, #1a2e35)" d="M19.667 29h-7.333c-0.184 0-0.333 0.149-0.333 0.333s0.149 0.333 0.333 0.333h7.333c0.184 0 0.333-0.149 0.333-0.333s-0.149-0.333-0.333-0.333z"></path>
<path fill="#1a2e35" style="fill: var(--color3, #1a2e35)" d="M19.667 27.368h-7.333c-0.184 0-0.333 0.149-0.333 0.333s0.149 0.333 0.333 0.333h7.333c0.184 0 0.333-0.149 0.333-0.333s-0.149-0.333-0.333-0.333z"></path>
<path fill="#1a2e35" style="fill: var(--color3, #1a2e35)" d="M29.333 25.737h-7.333c-0.184 0-0.333 0.149-0.333 0.333s0.149 0.333 0.333 0.333h7.333c0.184 0 0.333-0.149 0.333-0.333s-0.149-0.333-0.333-0.333z"></path>
<path fill="#1a2e35" style="fill: var(--color3, #1a2e35)" d="M29.333 29h-7.333c-0.184 0-0.333 0.149-0.333 0.333s0.149 0.333 0.333 0.333h7.333c0.184 0 0.333-0.149 0.333-0.333s-0.149-0.333-0.333-0.333z"></path>
<path fill="#1a2e35" style="fill: var(--color3, #1a2e35)" d="M29.333 27.368h-7.333c-0.184 0-0.333 0.149-0.333 0.333s0.149 0.333 0.333 0.333h7.333c0.184 0 0.333-0.149 0.333-0.333s-0.149-0.333-0.333-0.333z"></path>
<path fill="#1a2e35" style="fill: var(--color3, #1a2e35)" d="M19 17.79h-6c-0.551 0-1 0.449-1 1v4.28c0 0.551 0.449 1 1 1h6c0.551 0 1-0.449 1-1v-4.28c0-0.551-0.449-1-1-1zM19.333 23.070c0 0.184-0.149 0.333-0.333 0.333h-6c-0.184 0-0.333-0.149-0.333-0.333v-4.28c0-0.184 0.149-0.333 0.333-0.333h6c0.184 0 0.333 0.149 0.333 0.333v4.28z"></path>
<path fill="#1a2e35" style="fill: var(--color3, #1a2e35)" d="M9.333 17.79h-6c-0.551 0-1 0.449-1 1v4.28c0 0.551 0.449 1 1 1h6c0.551 0 1-0.449 1-1v-4.28c-0-0.551-0.449-1-1-1zM9.667 23.070c0 0.184-0.149 0.333-0.333 0.333h-6c-0.184 0-0.333-0.149-0.333-0.333v-4.28c0-0.184 0.149-0.333 0.333-0.333h6c0.184 0 0.333 0.149 0.333 0.333v4.28z"></path>
<path fill="#1a2e35" style="fill: var(--color3, #1a2e35)" d="M28.666 17.79h-6c-0.551 0-1 0.449-1 1v4.28c0 0.551 0.449 1 1 1h6c0.551 0 1-0.449 1-1v-4.28c0-0.551-0.449-1-1-1zM29 23.070c0 0.184-0.149 0.333-0.333 0.333h-6c-0.184 0-0.333-0.149-0.333-0.333v-4.28c0-0.184 0.149-0.333 0.333-0.333h6c0.184 0 0.333 0.149 0.333 0.333v4.28z"></path>
</symbol>

<symbol id="icon-youtube" viewBox="0 0 45 32">
<path fill="#fff" style="fill: var(--color1, #fff)" d="M41.542 3.562c-1.514-1.799-4.308-2.533-9.645-2.533h-19.372c-5.459 0-8.3 0.781-9.808 2.697-1.47 1.868-1.47 4.619-1.47 8.428v7.259c0 7.378 1.744 11.124 11.278 11.124h19.372c4.628 0 7.192-0.647 8.852-2.235 1.701-1.628 2.427-4.287 2.427-8.889v-7.259c0-4.016-0.114-6.784-1.634-8.591zM28.166 16.785l-8.797 4.597c-0.197 0.103-0.412 0.154-0.627 0.154-0.243 0-0.486-0.065-0.701-0.196-0.405-0.245-0.652-0.684-0.652-1.157v-9.165c0-0.472 0.246-0.911 0.65-1.156s0.906-0.262 1.326-0.044l8.797 4.568c0.448 0.232 0.729 0.694 0.729 1.198s-0.279 0.967-0.726 1.201z"></path>
</symbol>

<symbol id="icon-vk" viewBox="0 0 53 32">
<path fill="#fff" style="fill: var(--color1, #fff)" d="M26.266 29.221h2.974c0 0 0.898-0.098 1.357-0.592 0.422-0.453 0.409-1.303 0.409-1.303s-0.058-3.98 1.794-4.566c1.826-0.577 4.171 3.847 6.656 5.548 1.879 1.287 3.307 1.005 3.307 1.005l6.645-0.092c0 0 3.476-0.213 1.827-2.939-0.135-0.223-0.959-2.016-4.94-5.702-4.167-3.857-3.609-3.233 1.41-9.905 3.057-4.063 4.279-6.544 3.897-7.606-0.364-1.012-2.612-0.744-2.612-0.744l-7.482 0.046c0 0-0.555-0.075-0.966 0.17-0.402 0.241-0.661 0.801-0.661 0.801s-1.184 3.144-2.763 5.818c-3.331 5.642-4.663 5.94-5.208 5.59-1.267-0.817-0.95-3.28-0.95-5.031 0-5.468 0.831-7.748-1.619-8.338-0.813-0.196-1.412-0.325-3.492-0.346-2.67-0.028-4.929 0.008-6.209 0.633-0.851 0.416-1.508 1.342-1.108 1.395 0.494 0.066 1.614 0.301 2.208 1.108 0.767 1.040 0.74 3.377 0.74 3.377s0.44 6.437-1.029 7.236c-1.009 0.548-2.392-0.571-5.362-5.69-1.522-2.622-2.671-5.52-2.671-5.52s-0.222-0.542-0.617-0.831c-0.48-0.351-1.15-0.463-1.15-0.463l-7.11 0.046c0 0-1.067 0.030-1.459 0.492-0.349 0.412-0.028 1.263-0.028 1.263s5.566 12.988 11.869 19.533c5.779 6.001 12.342 5.606 12.342 5.606z"></path>
</symbol>

<symbol id="icon-inst" viewBox="0 0 32 32">
<path fill="#fff" style="fill: var(--color1, #fff)" d="M22.57 1.156h-13.792c-4.489 0-8.14 3.652-8.14 8.14v13.792c0 4.488 3.652 8.14 8.14 8.14h13.792c4.488 0 8.14-3.652 8.14-8.14v-13.792c0-4.489-3.652-8.14-8.14-8.14zM15.674 24.415c-4.534 0-8.223-3.689-8.223-8.223s3.689-8.223 8.223-8.223c4.534 0 8.223 3.689 8.223 8.223s-3.689 8.223-8.223 8.223zM24.093 9.909c-1.34 0-2.43-1.090-2.43-2.43s1.090-2.43 2.43-2.43c1.34 0 2.43 1.090 2.43 2.43s-1.090 2.43-2.43 2.43z"></path>
<path fill="#fff" style="fill: var(--color1, #fff)" d="M15.674 9.733c-3.562 0-6.46 2.898-6.46 6.46s2.898 6.46 6.46 6.46c3.562 0 6.459-2.898 6.459-6.46s-2.898-6.46-6.459-6.46z"></path>
<path fill="#fff" style="fill: var(--color1, #fff)" d="M24.093 6.813c-0.367 0-0.667 0.299-0.667 0.667s0.299 0.667 0.667 0.667c0.368 0 0.667-0.299 0.667-0.667s-0.299-0.667-0.667-0.667z"></path>
</symbol>

<symbol id="icon-facebook" viewBox="0 0 17 32">
<path fill="#fff" style="fill: var(--color1, #fff)" d="M11.708 7.366h3.814v-5.534h-4.483v0.020c-5.432 0.189-6.545 3.188-6.644 6.339h-0.011v2.763h-3.699v5.419h3.699v14.527h5.574v-14.527h4.567l0.882-5.419h-5.447v-1.67c0-1.065 0.721-1.919 1.748-1.919z"></path>
</symbol>





</defs>
</svg>
